<svg width="33" height="42" viewBox="0 0 33 42" fill="none" xmlns="http://www.w3.org/2000/svg">
<path d="M32.6979 21.99L27.026 29.6901C26.6224 30.2379 25.9707 30.2379 25.5679 29.6901C25.1644 29.1422 25.1644 28.2575 25.5679 27.7106L29.4788 22.4002H12.3754C11.8065 22.4002 11.3439 21.7733 11.3439 20.9998C11.3439 20.2274 11.8057 19.5994 12.3754 19.5994H29.4795L25.5679 14.2891C25.1644 13.7412 25.1644 12.8565 25.5679 12.3096C25.9714 11.7617 26.6232 11.7617 27.026 12.3096L32.6979 20.0097C33.1007 20.5575 33.1007 21.4421 32.6979 21.99ZM9.28176 20.9998C9.28176 18.6844 10.6701 16.7996 12.3756 16.7996H23.7194L23.7187 1.40037C23.7187 0.627936 23.2576 0 22.6872 0H1.03152C0.462539 0 0 0.626936 0 1.40037V40.5996C0 41.3721 0.461802 42 1.03152 42H22.6872C23.2576 42 23.7187 41.3731 23.7187 40.5996L23.718 25.1994H12.3749C10.6687 25.1994 9.28106 23.3147 9.28106 20.9992L9.28176 20.9998Z" fill="black"/>
</svg>
